<?xml version="1.0" standalone="no"?>
<!DOCTYPE svg PUBLIC "-//W3C//DTD SVG 20010904//EN"
 "http://www.w3.org/TR/2001/REC-SVG-20010904/DTD/svg10.dtd">
<svg version="1.0" xmlns="http://www.w3.org/2000/svg"
 width="1008.000000pt" height="566.000000pt" viewBox="0 0 1008.000000 566.000000"
 preserveAspectRatio="xMidYMid meet">

<g transform="translate(0.000000,566.000000) scale(0.100000,-0.100000)"
fill="#000000" stroke="none">
<path d="M10 2825 l0 -2825 5030 0 5030 0 0 2825 0 2825 -5030 0 -5030 0 0
-2825z m2795 405 c33 -11 68 -24 78 -27 9 -3 17 -11 17 -19 0 -19 -51 -134
-60 -134 -4 0 -27 9 -51 19 -163 72 -347 39 -337 -60 4 -47 37 -65 184 -105
166 -45 230 -76 269 -132 27 -39 30 -52 30 -115 -1 -152 -93 -235 -290 -261
-104 -15 -320 29 -378 76 l-27 23 31 65 c16 36 32 66 33 68 2 1 25 -9 53 -23
101 -53 254 -72 328 -41 67 28 82 98 28 133 -14 9 -82 32 -152 50 -152 40
-225 75 -266 126 -28 37 -30 44 -30 127 0 83 2 91 31 132 37 50 102 94 170
114 73 21 262 12 339 -16z m5046 14 c74 -22 122 -48 171 -92 l41 -37 -63 -56
-63 -56 -43 32 c-57 43 -105 59 -180 59 -192 -1 -312 -184 -243 -370 39 -103
129 -164 245 -164 64 0 152 31 184 65 13 14 28 25 34 25 13 0 116 -98 116
-110 0 -16 -85 -83 -135 -106 -28 -13 -88 -29 -133 -36 -260 -36 -483 116
-523 359 -36 221 98 427 319 488 68 19 208 18 273 -1z m-4133 -68 c2 -49 -1
-72 -10 -77 -7 -5 -109 -9 -225 -9 l-213 0 0 -90 0 -90 195 0 195 0 0 -75 0
-75 -192 -2 -193 -3 0 -95 0 -95 228 -3 227 -2 0 -80 0 -80 -322 2 -323 3 -3
423 -2 422 317 -2 318 -3 3 -69z m443 -63 c62 -76 156 -190 208 -253 l96 -115
3 253 2 252 95 0 95 0 1 -27 c2 -134 0 -806 -4 -809 -9 -10 -135 -16 -149 -8
-9 5 -58 61 -109 124 -51 63 -116 142 -143 176 -28 33 -78 94 -111 135 l-60
74 -5 -255 -5 -255 -90 0 -90 0 -3 423 -2 422 79 0 79 0 113 -137z m1166 125
c4 -7 22 -44 39 -83 17 -38 71 -158 119 -265 48 -107 104 -233 125 -280 21
-47 49 -111 64 -143 20 -45 23 -59 13 -63 -8 -3 -54 -4 -103 -2 l-89 3 -34 85
c-20 47 -39 88 -45 92 -14 10 -376 2 -385 -8 -5 -5 -23 -43 -41 -84 -18 -41
-38 -78 -44 -82 -15 -10 -186 -10 -186 0 0 9 48 122 125 292 45 99 70 156 164
368 21 48 48 108 60 135 l22 47 94 0 c64 0 96 -4 102 -12z m1061 -65 l-3 -78
-132 -3 -133 -3 -2 -342 -3 -342 -95 0 -95 0 0 340 0 340 -135 5 -135 5 -3 64
c-2 35 -1 70 2 77 4 12 73 14 371 14 l366 0 -3 -77z m750 3 c2 -49 -1 -72 -10
-77 -7 -5 -109 -9 -225 -9 l-213 0 0 -90 0 -90 195 0 195 0 0 -75 0 -75 -192
-2 -193 -3 -3 -97 -3 -98 231 0 231 0 -3 -77 -3 -78 -322 -3 -323 -2 0 425 0
425 318 -2 317 -3 3 -69z"/>
<path d="M5197 2988 c-14 -35 -42 -101 -61 -148 -20 -47 -36 -90 -36 -95 0 -7
46 -10 128 -10 81 1 126 5 125 11 -3 16 -119 294 -125 300 -3 3 -17 -23 -31
-58z"/>
</g>
</svg>
